<svg width="867" height="326" viewBox="0 0 867 326" fill="none" xmlns="http://www.w3.org/2000/svg">
<g id="undraw_bitcoin_re_urgq 1" clip-path="url(#clip0_1_2)">
<path id="Vector" d="M235.069 78.2132L268.853 63.9955L283.343 93.7009L247.842 108.191L235.069 78.2132Z" fill="#FFB6B6"/>
<path id="Vector_2" opacity="0.1" d="M235.069 78.2132L268.853 63.9955L283.343 93.7009L247.842 108.191L235.069 78.2132Z" fill="black"/>
<path id="Vector_3" d="M239.872 66.8936L273.2 105.293C273.2 105.293 250.015 178.47 226.831 184.991C203.646 191.512 160.899 223.391 160.899 223.391L107.284 188.613L133.367 150.214C133.367 150.214 196.401 63.9955 213.065 63.9955C229.729 63.9955 239.872 66.8936 239.872 66.8936Z" fill="#6C63FF"/>
<path id="Vector_4" d="M194.843 317.216H117.261L112.356 310.659L92.3302 283.888L87.7222 277.73C87.7222 277.73 70.3336 245.851 73.9563 216.87C77.5789 187.889 115.254 181.368 115.254 181.368H116.805L162.928 221.898L160.175 259.617L174.781 283.888L194.843 317.216Z" fill="#2F2E41"/>
<path id="Vector_5" d="M133.15 317.216H112.356V286.424L133.15 317.216Z" fill="#2F2E41"/>
<path id="Vector_6" d="M704.745 101.84L712.5 150.216L663.5 150.848V108.789L704.745 101.84Z" fill="#A0616A"/>
<path id="Vector_7" d="M821.461 270.47L818.875 283.888L812.456 317.216H683.498C684.505 309.746 685.881 298.995 687.352 287.388C687.497 286.228 687.649 285.062 687.794 283.888C691.482 254.712 695.518 221.695 695.518 221.695L712.471 223.753L745.365 227.738L758.768 229.361L794.661 233.715C812.557 235.881 824.867 252.763 821.461 270.47Z" fill="#F2F2F2"/>
<path id="Vector_8" d="M764.144 317.216H694.199C695.264 315.963 695.865 315.238 695.865 315.238L716.833 311.775L760.036 304.646C760.036 304.646 762.007 309.739 764.144 317.216Z" fill="#2F2E41"/>
<path id="Vector_9" d="M667.92 317.216H562.292C563.343 315.13 564.429 313.036 565.545 310.949C567.038 308.16 568.632 305.675 570.32 303.465C571.443 301.994 572.602 300.647 573.798 299.415C577.312 295.799 581.137 293.169 585.165 291.365C599.547 284.895 616.494 288.859 630.926 295.307C636.346 297.727 641.41 300.494 645.852 303.19C653.676 307.942 659.581 312.478 662.095 314.492C662.965 315.18 663.428 315.579 663.428 315.579L667.92 317.216Z" fill="#2F2E41"/>
<path id="Vector_10" d="M584.122 317.216H569.139L573.088 312.63L575.319 310.036L576.276 310.812L584.122 317.216Z" fill="#FFB6B6"/>
<path id="Vector_11" d="M769.259 317.216H640.236L645.852 303.19L653.568 283.888L657.444 274.194L654.241 260.566C654.241 260.566 652.662 259.45 650.256 257.443C641.685 250.343 622.609 232.056 626.992 213.276C631.977 191.903 638.237 150.25 639.563 141.273C639.729 140.15 639.816 139.542 639.816 139.542L658.436 134.977L659.052 134.825L661.052 134.332H710.928L747.611 159.176L747.604 159.437L745.365 227.738L744.408 256.958C744.408 256.958 743.256 261.174 743.532 267.724C743.713 272.216 744.561 277.802 746.908 283.888C749.393 290.358 753.574 297.386 760.435 304.247C765.615 309.428 768.129 313.789 769.259 317.216Z" fill="#6C63FF"/>
<path id="Vector_12" d="M758.768 229.361C757.544 239.403 756.37 246.539 756.37 246.539L743.532 267.724L733.736 283.888L716.833 311.775L714.355 315.869L712.587 317.216H659.559L662.095 314.492L687.352 287.388L690.62 283.888L695.916 278.201L712.471 223.753L731.983 159.582C731.983 159.582 739.887 156.829 747.604 159.437C751.661 160.806 755.675 163.661 758.435 169.196C763.717 179.76 761.145 209.972 758.768 229.361Z" fill="#6C63FF"/>
<path id="Vector_13" d="M665.486 227.607L650.256 257.443L636.759 283.888L630.926 295.307L628.63 299.813L608.944 317.216H564.372L571.718 308.087L574.45 304.682L585.165 291.365L591.179 283.888L607.502 263.587L611.856 171.125C612.578 155.789 624.263 143.392 639.471 141.288C639.504 141.284 639.534 141.279 639.563 141.273C644.504 140.281 652.358 139.991 658.436 145.867C658.647 146.062 658.849 146.272 659.052 146.49C660.074 147.569 661.038 148.837 661.921 150.322C662.008 150.467 662.095 150.62 662.175 150.772C662.429 151.235 662.675 151.742 662.9 152.286C670.659 170.356 665.486 227.607 665.486 227.607Z" fill="#6C63FF"/>
<path id="Vector_14" d="M678.776 123.371C698.231 123.371 714.003 107.6 714.003 88.1443C714.003 68.6891 698.231 52.9175 678.776 52.9175C659.321 52.9175 643.549 68.6891 643.549 88.1443C643.549 107.6 659.321 123.371 678.776 123.371Z" fill="#A0616A"/>
<path id="Vector_15" d="M693.383 101.994C693.383 101.994 689.731 91.9327 687.661 86.7119C685.59 81.4911 686.94 74.7162 686.94 74.7162C686.94 74.7162 659.307 68.6167 648.486 74.6622C637.665 80.7078 636.937 50.2998 647.92 42.0238C647.92 42.0238 650.861 47.1352 649.719 48.6048L648.578 50.0743C648.578 50.0743 656.889 32.4981 670.923 31.6181C670.923 31.6181 677.575 36.9257 675.068 38.6776C672.561 40.4295 693.551 28.774 697.202 38.8352C697.202 38.8352 710.586 41.2196 707.978 45.7908L708.197 48.9457C708.197 48.9457 720.327 47.6863 719.463 56.2818C719.463 56.2818 715.382 55.4686 712.773 57.2111C710.163 58.9536 718.981 67.2161 718.981 67.2161C718.981 67.2161 724.281 101.646 705.901 111.559C705.901 111.559 708.882 95.8907 701.867 98.4522C694.851 101.014 693.383 101.994 693.383 101.994Z" fill="#2F2E41"/>
<path id="Vector_16" d="M845.641 325.716H21.1641C9.49414 325.716 0 316.222 0 304.552C0 292.882 9.49414 283.388 21.1641 283.388H845.641C857.311 283.388 866.805 292.882 866.805 304.552C866.805 316.222 857.311 325.716 845.641 325.716Z" fill="#E6E6E6"/>
<g id="laptop-2">
<path id="Vector_17" d="M817.522 218.878L815.919 293.681C815.764 300.922 809.85 306.711 802.607 306.711H665.004C657.933 306.711 652.095 301.183 651.709 294.122L647.619 219.32C647.202 211.692 653.275 205.278 660.915 205.278H804.21C811.675 205.278 817.682 211.414 817.522 218.878Z" fill="#3F3D56"/>
</g>
<path id="Vector_18" d="M296.385 96.2698C314.567 96.2698 329.307 81.5302 329.307 63.348C329.307 45.1658 314.567 30.4262 296.385 30.4262C278.203 30.4262 263.463 45.1658 263.463 63.348C263.463 81.5302 278.203 96.2698 296.385 96.2698Z" fill="#FFB6B6"/>
<path id="Vector_19" d="M241.321 149.489L244.944 188.613L269.578 287.873L248.296 295.332L212.34 187.164L207.374 143.693L241.321 149.489Z" fill="#FFB6B6"/>
<g id="laptop-1">
<path id="Vector_20" d="M231.522 218.878L229.919 293.681C229.764 300.922 223.85 306.711 216.607 306.711H79.0043C71.9328 306.711 66.0947 301.183 65.7087 294.122L61.6194 219.32C61.2024 211.692 67.2754 205.278 74.9149 205.278H218.21C225.675 205.278 231.682 211.414 231.522 218.878Z" fill="#3F3D56"/>
</g>
<path id="Vector_21" d="M273.5 307.216C287.859 307.216 299.5 302.068 299.5 295.716C299.5 289.365 287.859 284.216 273.5 284.216C259.141 284.216 247.5 289.365 247.5 295.716C247.5 302.068 259.141 307.216 273.5 307.216Z" fill="#FFB6B6"/>
<path id="Vector_22" d="M190.242 155.471L205.095 76.3124C205.095 76.3124 246.393 70.5162 247.842 84.2821C249.291 98.0481 246.806 165.324 246.806 165.324L190.242 155.471Z" fill="#6C63FF"/>
<path id="Vector_23" d="M283.095 68.5244C283.095 68.5244 303.461 61.2561 312.051 57.3453C320.642 53.4346 337.708 80.7117 338.088 66.3057C338.467 51.8998 332.57 45.8586 332.57 45.8586C332.57 45.8586 331.098 14.3435 299.347 18.2836C299.347 18.2836 306.331 2.5163 283.406 0.0781667C260.482 -2.35996 224.817 52.9991 228.011 61.2723C231.205 69.5454 235.034 76.3851 225.972 85.2309C216.91 94.0767 199.942 144 212.852 157.434C225.762 170.868 226.61 176.698 217.764 185.055C208.918 193.413 188.01 211.586 210.617 214.74C233.224 217.895 208.548 215.539 225.402 200.714C242.256 185.889 266.85 186.495 257.667 162.71C248.484 138.924 264.438 104.84 262.442 99.6697C260.445 94.499 266.914 61.6647 266.914 61.6647C266.914 61.6647 281.969 59.4528 283.095 68.5244Z" fill="#2F2E41"/>
<g id="bitcoin">
<path id="Vector_24" d="M568.755 222.563C552.499 281.04 486.459 316.628 421.248 302.045C356.064 287.466 316.382 228.236 332.645 169.762C348.894 111.279 414.934 75.6873 480.126 90.2665C545.333 104.846 585.011 164.083 568.755 222.563Z" fill="#F7931A"/>
<path id="Vector_25" d="M504.362 180.606C506.785 166.082 494.454 158.274 477.593 153.065L483.062 133.39L469.708 130.405L464.383 149.562C460.873 148.777 457.267 148.037 453.684 147.304L459.047 128.021L445.701 125.036L440.227 144.704C437.321 144.111 434.469 143.524 431.7 142.907L431.715 142.845L413.299 138.721L409.746 151.513C409.746 151.513 419.654 153.549 419.445 153.676C424.854 154.887 425.831 158.096 425.668 160.641L419.437 183.055C419.81 183.141 420.293 183.264 420.826 183.455C420.381 183.356 419.905 183.246 419.415 183.141L410.682 214.54C410.02 216.014 408.343 218.224 404.562 217.385C404.695 217.559 394.855 215.212 394.855 215.212L388.226 228.921L405.604 232.807C408.837 233.533 412.005 234.294 415.124 235.01L409.598 254.911L422.936 257.895L428.41 238.206C432.053 239.093 435.591 239.912 439.052 240.683L433.598 260.28L446.952 263.265L452.478 243.402C475.25 247.266 492.373 245.707 499.581 227.236C505.389 212.364 499.292 203.785 487.31 198.191C496.036 196.386 502.608 191.239 504.362 180.606ZM473.85 218.978C469.723 233.85 441.802 225.81 432.75 223.794L440.083 197.43C449.135 199.456 478.163 203.468 473.85 218.978ZM477.981 180.391C474.215 193.92 450.976 187.047 443.437 185.361L450.086 161.45C457.624 163.135 481.902 166.28 477.981 180.391Z" fill="white"/>
</g>
</g>
<defs>
<clipPath id="clip0_1_2">
<rect width="866.805" height="325.716" fill="white"/>
</clipPath>
</defs>
</svg>
